<svg height="512pt" viewBox="0 0 512 512.00101" width="512pt" xmlns="http://www.w3.org/2000/svg"><path d="m111.753906 384.652344h16.027344v15.15625h-16.027344zm0 0"/><path d="m175.863281 384.652344h16.027344v15.15625h-16.027344zm0 0"/><path d="m304.082031 384.652344h16.027344v15.15625h-16.027344zm0 0"/><path d="m368.191406 384.652344h16.027344v15.15625h-16.027344zm0 0"/><path d="m111.753906 136.230469h16.027344v15.15625h-16.027344zm0 0"/><path d="m175.863281 136.230469h16.027344v15.15625h-16.027344zm0 0"/><path d="m304.082031 136.230469h16.027344v15.15625h-16.027344zm0 0"/><path d="m368.191406 136.230469h16.027344v15.15625h-16.027344zm0 0"/><path d="m143.8125 384.652344h16.023438v15.15625h-16.023438zm0 0"/><path d="m336.136719 384.652344h16.027343v15.15625h-16.027343zm0 0"/><path d="m143.8125 136.230469h16.023438v15.15625h-16.023438zm0 0"/><path d="m336.136719 136.230469h16.027343v15.15625h-16.027343zm0 0"/><path d="m512 47.644531v-47.644531h-47.210938v176.300781h-32.925781v-104.613281h-15.15625v104.613281h-145.113281v-145.117187h40.9375v80.136718h63.238281v-80.136718h40.941407v16.460937h15.15625v-31.617187h-175.429688v160.273437h-16.898438v-104.613281h-15.15625v104.613281h-145.117187v-145.117187h40.941406v80.136718h63.238281v-80.136718h40.9375v16.460937h15.15625v-31.617187h-175.429687v160.273437h-16.898437v-176.300781h-47.210938v288.054688h15.15625v-64.542969h16.898438v201.210937h-16.898438v-112.625h-15.15625v199.902344h47.210938v-40.066406h272.898437v-15.15625h-304.953125v-16.898438h481.6875v16.898438h-152.691406v15.15625h120.636718v40.066406h47.210938v-440.3125h-15.15625v104.613281h-16.898438v-161.144531h16.898438v32.488281zm-184.3125 48.519531v-16.898437h32.925781v16.898437zm32.925781-64.980468v32.925781h-32.925781v-32.925781zm-225.253906 64.980468v-16.898437h32.925781v16.898437zm32.925781-64.980468v32.925781h-32.925781v-32.925781zm-153.128906-16.027344h16.898438v161.144531h-16.898438zm16.898438 456.777344v24.910156h-16.898438v-24.910156zm464.789062 24.910156h-16.898438v-24.910156h16.898438zm0-72.121094h-16.898438v-201.210937h16.898438zm0-216.367187h-120.640625v15.15625h88.585937v201.210937h-32.925781v-104.613281h-15.15625v104.613281h-145.113281v-145.117187h40.9375v80.136719h63.238281v-80.136719h40.941407v16.460937h15.15625v-31.617187h-175.429688v160.273437h-16.898438v-104.613281h-15.15625v104.613281h-145.117187v-145.117187h40.941406v80.136719h63.238281v-80.136719h40.9375v16.460937h15.15625v-31.617187h-175.429687v160.273437h-16.898437v-201.210937h304.953124v-15.15625h-337.007812v-16.898438h481.6875zm-169.15625 119.332031h32.925781v16.898438h-32.925781zm32.925781-15.15625h-32.925781v-32.925781h32.925781zm-225.253906 15.15625h32.925781v16.898438h-32.925781zm32.925781-15.15625h-32.925781v-32.925781h32.925781zm0 0"/></svg>